Coordinates
version=1
nRows=38
nColumns=12
inDegrees=yes

Units are S.I. units (second, meters, Newtons, ...)
Angles are in degrees

endheader
time	SC_y	SC_z	SC_x	AC_y	AC_z	AC_x	GH_y	GH_z	GH_yy	EL_x	PS_y
       0.0              -11.88          7.286          34.36          49.56          -4.06         -7.561         -85.98          69.07          100.4           53.6          47.47
   0.03984              -11.89          7.284          34.37          49.56          -4.06         -7.562         -85.97          69.07          100.3           53.6          47.47
   0.07968               -11.9          7.283          34.37          49.56          -4.06         -7.562         -85.96          69.07          100.3           53.6          47.47
    0.1195               -11.9          7.281          34.37          49.56          -4.06         -7.563         -85.96          69.07          100.2           53.6          47.47
    0.1594              -11.91          7.279          34.37          49.57          -4.06         -7.564         -85.95          69.07          100.2          53.59          47.47
    0.1992              -11.92          7.277          34.37          49.57         -4.059         -7.564         -85.94          69.08          100.1          53.59          47.47
     0.239              -11.93          7.276          34.37          49.57         -4.059         -7.565         -85.92          69.08          100.1          53.59          47.46
    0.2789              -11.94          7.273          34.37          49.57         -4.059         -7.566         -85.91          69.08          100.0          53.59          47.46
    0.3187              -11.95          7.271          34.37          49.57         -4.059         -7.567          -85.9          69.08          99.97          53.59          47.46
    0.3586              -11.96          7.269          34.37          49.57         -4.059         -7.568         -85.89          69.08           99.9          53.58          47.46
    0.3984              -11.97          7.266          34.37          49.58         -4.059         -7.568         -85.87          69.09          99.83          53.58          47.46
    0.4382              -11.98          7.263          34.37          49.58         -4.059          -7.57         -85.86          69.09          99.75          53.58          47.45
    0.4781               -12.0          7.261          34.37          49.58         -4.059         -7.571         -85.84          69.09          99.66          53.58          47.45
    0.5179              -12.01          7.257          34.37          49.58         -4.059         -7.572         -85.82          69.09          99.57          53.57          47.45
    0.5577              -12.03          7.254          34.38          49.58         -4.058         -7.573          -85.8           69.1          99.47          53.57          47.44
    0.5976              -12.05           7.25          34.38          49.59         -4.058         -7.574         -85.78           69.1          99.37          53.57          47.44
    0.6374              -12.06          7.246          34.38          49.59         -4.058         -7.576         -85.75           69.1          99.25          53.56          47.44
    0.6773              -12.09          7.241          34.38          49.59         -4.058         -7.578         -85.73          69.11          99.12          53.56          47.43
    0.7171              -12.11          7.237          34.38           49.6         -4.058         -7.579          -85.7          69.11          98.99          53.55          47.43
    0.7569              -12.13          7.231          34.38           49.6         -4.058         -7.581         -85.67          69.12          98.83          53.55          47.43
    0.7968              -12.16          7.225          34.38           49.6         -4.057         -7.584         -85.64          69.12          98.67          53.54          47.42
    0.8366              -12.19          7.219          34.39          49.61         -4.057         -7.586          -85.6          69.13          98.48          53.54          47.41
    0.8765              -12.22          7.212          34.39          49.61         -4.057         -7.589         -85.56          69.13          98.28          53.53          47.41
    0.9163              -12.26          7.204          34.39          49.62         -4.056         -7.592         -85.51          69.14          98.06          53.52           47.4
    0.9561               -12.3          7.195           34.4          49.63         -4.056         -7.595         -85.46          69.15          97.81          53.51          47.39
     0.996              -12.34          7.185           34.4          49.63         -4.056         -7.598         -85.41          69.16          97.53           53.5          47.38
     1.036              -12.39          7.174           34.4          49.64         -4.055         -7.602         -85.34          69.17          97.22          53.49          47.37
     1.076              -12.45          7.162          34.41          49.65         -4.055         -7.607         -85.27          69.18          96.87          53.48          47.36
     1.115              -12.51          7.148          34.41          49.66         -4.054         -7.612         -85.19          69.19          96.47          53.47          47.35
     1.155              -12.59          7.132          34.42          49.67         -4.054         -7.618          -85.1          69.21          96.02          53.45          47.34
     1.195              -12.67          7.114          34.42          49.68         -4.053         -7.625          -85.0          69.22          95.51          53.43          47.32
     1.235              -12.77          7.093          34.43           49.7         -4.052         -7.632         -84.88          69.24          94.92          53.41           47.3
     1.275              -12.87          7.069          34.44          49.71         -4.051         -7.641         -84.74          69.26          94.24          53.39          47.28
     1.315               -13.0          7.041          34.45          49.73          -4.05         -7.652         -84.58          69.29          93.45          53.36          47.26
     1.355              -13.15          7.009          34.46          49.76         -4.049         -7.664         -84.39          69.32          92.53          53.33          47.23
     1.394              -13.33           6.97          34.47          49.78         -4.047         -7.678         -84.17          69.35          91.44           53.3          47.19
     1.434              -13.54          6.924          34.49          49.82         -4.045         -7.695         -83.91          69.39          90.15          53.25          47.15
     1.474              -13.79           6.87           34.5          49.86         -4.043         -7.715          -83.6          69.44          88.59           53.2          47.11
